<?xml version="1.0" encoding="iso-8859-1"?>
<!-- Generator: Adobe Illustrator 23.0.2, SVG Export Plug-In . SVG Version: 6.00 Build 0)  -->
<svg version="1.1" id="Layer_1" xmlns="http://www.w3.org/2000/svg" xmlns:xlink="http://www.w3.org/1999/xlink" x="0px" y="0px"
	 width="1000px" height="1000px" viewBox="0 0 1000 1000" style="enable-background:new 0 0 1000 1000;" xml:space="preserve">
<path style="opacity:0.78;" d="M499.66,351.041c-82.233,0-148.896,66.663-148.896,148.895c0,82.233,66.663,148.896,148.896,148.896
	s148.896-66.663,148.896-148.896C648.555,417.703,581.892,351.041,499.66,351.041z M499.66,551.079
	c-28.245,0-51.143-22.897-51.143-51.143c0-28.245,22.897-51.143,51.143-51.143c28.245,0,51.143,22.897,51.143,51.143
	C550.802,528.181,527.905,551.079,499.66,551.079z"/>
<g>
	<circle style="fill:none;" cx="499.079" cy="501.337" r="122.472"/>
	<path style="fill:#848484;" d="M491.801,613.904l-0.567-22.438c-0.172-6.829,3.327-10.822,9.912-10.988
		c6.585-0.167,10.281,3.645,10.453,10.474l0.567,22.438c0.173,6.829-3.326,10.822-9.911,10.989
		C495.669,624.545,491.973,620.733,491.801,613.904z M505.47,613.986l-0.589-23.292c-0.077-3.049-1.447-4.174-3.582-4.12
		c-2.134,0.055-3.446,1.247-3.369,4.296l0.588,23.292c0.077,3.049,1.448,4.173,3.582,4.119
		C504.234,618.228,505.547,617.035,505.47,613.986z"/>
	<path style="fill:#848484;" d="M517.014,579.512l6.357-2.144l11.691,34.68l10.462-3.526l1.948,5.78l-16.819,5.67L517.014,579.512z"
		/>
	<path style="fill:#848484;" d="M537.977,571.702l8.285-6.032c5.425-3.949,10.277-2.88,14.299,2.644l12.71,17.458
		c4.021,5.523,3.548,10.471-1.876,14.42l-8.285,6.032L537.977,571.702z M567.705,595.332c1.726-1.257,2.115-2.898,0.32-5.364
		l-13.069-17.951c-1.795-2.466-3.477-2.6-5.203-1.343l-2.762,2.01l17.952,24.658L567.705,595.332z"/>
	<path style="fill:#848484;" d="M566.061,547.583l2.556-5.939l31.325,10.226l0.049-0.112L571.1,535.873l2.893-6.724l31.398,10.057
		l0.048-0.112l-28.963-15.716l2.29-5.323l37.51,20.854l-3.303,7.677l-27.652-8.578l-0.048,0.112l25.241,14.181l-3.521,8.181
		L566.061,547.583z"/>
	<path style="fill:#848484;" d="M578.354,513.779l0.87-18.279l6.093,0.29l-0.551,11.577l11.271,0.536l0.438-9.2l6.094,0.29
		l-0.438,9.2l13.1,0.623l0.551-11.576l6.093,0.29l-0.869,18.278L578.354,513.779z"/>
	<path style="fill:#848484;" d="M610.41,483.113l-2.364,0.604l-1.57-6.146l2.836-0.725c2.955-0.755,3.687-2.327,3.158-4.396
		c-0.529-2.068-1.925-3.097-4.998-2.312c-3.428,0.876-5.282,2.735-7.917,7.942c-3.397,6.66-6.313,9.294-11.041,10.503
		c-6.5,1.662-11.144-0.74-12.76-7.063c-1.616-6.324,1.365-10.422,7.984-12.114l1.713-0.438l1.571,6.146l-2.127,0.544
		c-2.955,0.755-3.776,2.224-3.247,4.292c0.528,2.068,1.953,2.963,4.79,2.238c3.015-0.771,4.854-2.688,7.489-7.896
		c3.396-6.66,6.268-9.22,11.409-10.534c6.737-1.722,11.396,0.739,13.027,7.121S617.029,481.421,610.41,483.113z"/>
	<path style="fill:#848484;" d="M574.079,459.339l3.673,5.977l-5.197,3.193l-10.858-17.67l5.197-3.193l3.673,5.977l31.183-19.162
		l3.514,5.717L574.079,459.339z"/>
	<path style="fill:#848484;" d="M546.164,424.733l5.983,3.66l-2.482,4.059c-4.839-2.96-7.192-2.97-10.658-0.228l-3.85-2.355
		l22.28-36.423l5.724,3.501L546.164,424.733z"/>
	<path style="fill:#848484;" d="M534.496,394.069l-0.784,3.388l-6.181-1.432l0.853-3.685c0.688-2.972-0.357-4.404-2.438-4.886
		c-2.08-0.481-3.622,0.226-4.476,3.911l-0.784,3.388c-0.895,3.863,0.083,5.592,3.055,6.281l2.198,0.509l-1.376,5.943l-2.377-0.551
		c-2.438-0.564-4.171,0.162-4.941,3.49l-0.702,3.031c-0.688,2.972,0.403,4.477,2.306,4.917c1.901,0.44,3.411-0.399,4.045-3.134
		l0.633-2.734l6.181,1.432l-0.509,2.199c-1.542,6.657-5.724,9.571-11.964,8.125c-6.24-1.445-8.729-5.841-7.188-12.498l0.344-1.486
		c1.032-4.458,3.092-6.861,6.577-7.307l0.027-0.119c-3.204-2.12-3.81-5.454-2.832-9.673l0.853-3.685
		c1.542-6.656,5.71-9.511,12.129-8.024C533.563,382.957,536.038,387.413,534.496,394.069z"/>
	<path style="fill:#848484;" d="M499.183,388.53l0.07,0.79l-6.319,0.562l-0.108-1.215c-0.27-3.038-1.709-4.074-3.836-3.885
		c-2.37,0.211-3.604,1.484-3.242,5.555l0.724,8.142l0.122-0.011c0.938-2.533,2.77-3.981,5.747-4.247
		c4.922-0.438,7.721,2.805,8.277,9.063l0.675,7.595c0.605,6.806-2.634,11.013-9.196,11.596s-10.493-2.987-11.098-9.792
		l-1.955-21.995c-0.638-7.17,2.298-11.35,9.225-11.966C494.83,378.139,498.578,381.725,499.183,388.53z M487.055,405.041l0.67,7.534
		c0.249,2.795,1.521,4.029,3.831,3.824c2.309-0.205,3.345-1.645,3.096-4.439l-0.67-7.534c-0.254-2.856-1.527-4.09-3.836-3.885
		C487.837,400.746,486.801,402.185,487.055,405.041z"/>
	<path style="fill:#848484;" d="M462.527,430.186l-5.323,2.29l-1.412-45.875l5.323-2.291L462.527,430.186z"/>
	<path style="fill:#848484;" d="M432.312,410.438l2.217,2.519l-4.763,4.191l-2.539-2.885c-2.015-2.29-3.748-2.228-5.351-0.817
		c-1.603,1.411-1.885,3.121,0.13,5.411l6.327,7.189c2.015,2.29,3.788,2.273,5.391,0.863c1.603-1.411,1.844-3.167-0.171-5.457
		l-0.242-0.275l4.762-4.191l14.841,18.71l-13.28,11.687l-4.03-4.579l8.792-7.737l-6.318-8.01l-0.091,0.081
		c0.414,2.317-0.28,4.391-2.295,6.164c-3.709,3.264-7.883,2.306-12.034-2.41l-6.367-7.235c-4.513-5.128-4.528-10.316,0.417-14.668
		C422.655,404.635,427.798,405.309,432.312,410.438z"/>
	<path style="fill:#848484;" d="M407.341,435.672l19.344,11.382c5.888,3.464,7.427,8.545,4.086,14.222s-8.529,6.799-14.417,3.335
		l-19.344-11.382c-5.888-3.464-7.427-8.545-4.086-14.222S401.453,432.208,407.341,435.672z M400.044,447.23l20.081,11.815
		c2.628,1.546,4.308,0.978,5.39-0.862s0.764-3.584-1.864-5.13l-20.081-11.815c-2.628-1.546-4.308-0.978-5.39,0.862
		S397.416,445.684,400.044,447.23z"/>
	<path style="fill:#848484;" d="M391.34,467.781l21.95,4.688c6.681,1.427,9.746,5.762,8.37,12.204s-5.945,9.146-12.625,7.718
		l-21.95-4.688c-6.681-1.427-9.746-5.762-8.37-12.204S384.659,466.354,391.34,467.781z M388.068,481.053l22.785,4.867
		c2.982,0.637,4.396-0.433,4.842-2.521c0.446-2.087-0.407-3.642-3.39-4.279l-22.785-4.867c-2.982-0.637-4.396,0.433-4.842,2.521
		C384.233,478.861,385.086,480.416,388.068,481.053z"/>
</g>
<g>
</g>
<g>
</g>
<g>
</g>
<g>
</g>
<g>
</g>
<g>
</g>
</svg>
